<svg width="96" height="96" viewBox="0 0 96 96" fill="none" xmlns="http://www.w3.org/2000/svg">
<path d="M75.4482 39.2056C76.2767 39.2056 76.9482 39.8781 76.9482 40.7065V84.5171C76.9479 85.3452 76.2765 86.0171 75.4482 86.0171H20.5508C19.7228 86.0169 19.0511 85.3451 19.0508 84.5171V40.7065C19.0508 39.8783 19.7226 39.2058 20.5508 39.2056H75.4482ZM55.5381 47.897C54.986 47.8972 54.5381 48.3448 54.5381 48.897V59.7808C54.5382 60.3329 54.986 60.7806 55.5381 60.7808H65.2305C65.7827 60.7807 66.2304 60.333 66.2305 59.7808V48.897C66.2305 48.3447 65.7827 47.897 65.2305 47.897H55.5381Z" fill="#F3FCFD"/>
<path d="M76.9482 84.5171L78.4482 84.5177V84.5171H76.9482ZM20.5508 86.0171L20.5504 87.5171H20.5508V86.0171ZM19.0508 84.5171L17.5508 84.5171L17.5508 84.5177L19.0508 84.5171ZM20.5508 39.2056L20.5508 37.7056L20.5504 37.7056L20.5508 39.2056ZM55.5381 47.897L55.5381 46.397L55.5375 46.397L55.5381 47.897ZM54.5381 59.7808L53.0381 59.7808L53.0381 59.7809L54.5381 59.7808ZM55.5381 60.7808L55.5375 62.2808H55.5381V60.7808ZM65.2305 60.7808L65.2305 62.2808L65.2306 62.2808L65.2305 60.7808ZM66.2305 59.7808L67.7305 59.7809V59.7808H66.2305ZM65.2305 47.897L65.2306 46.397H65.2305V47.897ZM75.4482 39.2056V40.7056V40.7065H76.9482H78.4482C78.4482 39.051 77.1064 37.7056 75.4482 37.7056V39.2056ZM76.9482 40.7065H75.4482V84.5171H76.9482H78.4482V40.7065H76.9482ZM76.9482 84.5171L75.4482 84.5165L75.4482 84.5171V86.0171V87.5171C77.1055 87.5171 78.4476 86.1732 78.4482 84.5177L76.9482 84.5171ZM75.4482 86.0171V84.5171H20.5508V86.0171V87.5171H75.4482V86.0171ZM20.5508 86.0171L20.5512 84.5171L20.5508 84.5165L19.0508 84.5171L17.5508 84.5177C17.5514 86.1735 18.8941 87.5166 20.5504 87.5171L20.5508 86.0171ZM19.0508 84.5171H20.5508V40.7065H19.0508H17.5508V84.5171H19.0508ZM19.0508 40.7065H20.5508C20.5508 40.7046 20.5509 40.7043 20.5508 40.705C20.5507 40.7056 20.5505 40.7063 20.5502 40.7069C20.5499 40.7077 20.55 40.7071 20.5513 40.7058C20.5525 40.7045 20.5531 40.7045 20.5521 40.7049C20.5515 40.7052 20.5507 40.7054 20.55 40.7056C20.5491 40.7057 20.5494 40.7056 20.5512 40.7056L20.5508 39.2056L20.5504 37.7056C18.8932 37.706 17.5508 39.0507 17.5508 40.7065H19.0508ZM20.5508 39.2056V40.7056H75.4482V39.2056V37.7056H20.5508V39.2056ZM55.5381 47.897L55.5375 46.397C54.158 46.3975 53.0381 47.5158 53.0381 48.897H54.5381H56.0381C56.0381 49.1738 55.814 49.3969 55.5386 49.397L55.5381 47.897ZM54.5381 48.897H53.0381V59.7808H54.5381H56.0381V48.897H54.5381ZM54.5381 59.7808L53.0381 59.7809C53.0382 61.1617 54.1578 62.2803 55.5375 62.2808L55.5381 60.7808L55.5386 59.2808C55.8142 59.2809 56.0381 59.504 56.0381 59.7806L54.5381 59.7808ZM55.5381 60.7808V62.2808H65.2305V60.7808V59.2808H55.5381V60.7808ZM65.2305 60.7808L65.2306 62.2808C66.6112 62.2807 67.7303 61.1614 67.7305 59.7809L66.2305 59.7808L64.7305 59.7806C64.7305 59.5046 64.9542 59.2808 65.2304 59.2808L65.2305 60.7808ZM66.2305 59.7808H67.7305V48.897H66.2305H64.7305V59.7808H66.2305ZM66.2305 48.897H67.7305C67.7305 47.5162 66.6111 46.3971 65.2306 46.397L65.2305 47.897L65.2304 49.397C64.9544 49.397 64.7305 49.1733 64.7305 48.897H66.2305ZM65.2305 47.897V46.397H55.5381V47.897V49.397H65.2305V47.897Z" fill="black"/>
<path d="M47.533 66.9995C41.4236 66.9995 39.6134 79.4619 40.066 85.9995H55C55 79.8705 52.9906 66.9995 47.533 66.9995Z" fill="#F5C5C5" stroke="black" stroke-width="3" stroke-linecap="round" stroke-linejoin="round"/>
<path d="M6 39C6 39 26.9186 17.5714 48.3307 9C66.189 16.3469 90 39 90 39H75.4488H20.5512H6Z" fill="#DEC596" stroke="black" stroke-width="3" stroke-linecap="round" stroke-linejoin="round"/>
</svg>
