<svg width="96" height="96" viewBox="0 0 96 96" fill="none" xmlns="http://www.w3.org/2000/svg">
<path d="M6.3755 44.4363C7.08922 37.963 11.1337 34.5465 14.405 33.6474C13.5128 31.5496 9.9442 28.253 9.9442 24.6567C9.9442 21.0604 13.8102 18.179 15.2971 17.5796C15.5945 16.0811 17.7951 11.8897 20.65 11.1704C23.5049 10.4511 26.8951 12.0694 28.7541 14.8824C31.3559 14.8824 33.2114 16.5399 34.107 18.3632C35.8166 21.8437 35.5193 24.1851 34.9245 26.8822C36.6341 25.8677 39.9205 24.6567 42.0617 24.6567C44.2029 24.6567 47.6374 25.6834 48.2321 26.8822C49.719 25.6834 52.4493 24.4426 55.444 25.5558C59.0126 26.8822 61.5966 28.7392 63.286 30.4287C63.2114 27.6162 61.3041 22.2968 66.2245 19.3775C67.9342 18.3632 70.6106 17.5796 73.2871 18.3632C74.4766 16.5651 80.3205 14.3427 83.1754 15.7813C86.0303 17.2198 86.744 21.7751 86.744 23.8729C88.4537 25.6712 90.2379 28.6327 90.2379 31.8493C90.2379 35.4456 86.4466 37.9583 83.1754 40.0562C85.5545 43.3528 90.2379 47.442 90.2379 52.5279C90.2379 56.0089 91.2795 60.6757 86.744 63.373C90.9074 66.3699 92.2613 73.335 86.744 79.6153C81.3174 85.7924 72.4729 83.8117 69.7946 83.2119L69.7931 83.2116C67.7114 85.6091 61.7637 90.4042 54.6265 90.4042C47.4893 90.4042 46.4477 88.3755 43.846 85.7935C41.1695 88.1911 33.432 90.2586 28.7541 88.4908C21.6168 85.7935 19.9233 83.2116 18.4364 79.6153C15.7599 78.7162 9.94397 78.5445 6.3754 73.5097C2.80683 68.4749 6.97039 58.8214 9.9442 56.1242C7.56513 54.9254 5.66178 50.9096 6.3755 44.4363Z" fill="#DEC596" stroke="black" stroke-width="3" stroke-linejoin="round"/>
<path d="M35.1739 61.321C35.3073 60.0457 33.9881 57.9131 32.5013 57.9109C31.1557 57.9089 30.0051 59.1896 29.8865 60.3232C29.7383 61.7401 29.5159 63.8654 31.8528 64.1099C34.2134 64.3568 35.0072 62.915 35.1739 61.321Z" fill="black"/>
<path d="M61.1946 62.5917C61.342 61.1827 62.7339 59.6871 64.3601 59.7179C66.3133 59.7549 67.8986 61.3344 67.3073 63.7653C66.5854 66.7326 64.0487 66.6609 63.2142 66.4734C61.7323 66.1403 61.0103 64.353 61.1946 62.5917Z" fill="black"/>
<path d="M47.8675 70.2651C48.4094 70.2589 50.9324 67.3922 50.2041 66.6546C49.4433 65.8843 46.7405 65.8373 45.6631 66.7066C44.5856 67.5759 47.3257 70.2713 47.8675 70.2651Z" fill="black"/>
<path d="M43.8581 72.001C46.3923 72.8457 47.9939 70.415 47.9939 70.415C47.9939 70.415 48.9264 72.8457 51.6851 72.4073" stroke="black" stroke-width="2.5" stroke-linecap="round"/>
<path d="M18.5273 59.6256C18.2315 53.309 24.0535 47.9029 30.856 48.1775C37.3813 48.441 42.4411 53.5665 42.1574 59.6256C41.8863 65.4159 37.0917 69.868 30.856 70.1198C24.3308 70.3832 18.811 65.6848 18.5273 59.6256Z" stroke="black" stroke-width="2.5" stroke-linejoin="round"/>
<path d="M54.0063 61.3156C53.7105 54.9989 59.5325 49.5928 66.335 49.8674C72.8603 50.1309 77.9201 55.2564 77.6364 61.3156C77.3653 67.1059 72.5707 71.558 66.335 71.8097C59.8098 72.0732 54.29 67.3748 54.0063 61.3156Z" stroke="black" stroke-width="2.5" stroke-linejoin="round"/>
<path d="M48.0814 59.9944L47.9897 61.241L48.0814 59.9944ZM53.5294 62.844C54.1702 63.1009 54.8979 62.7897 55.1547 62.1489C55.4116 61.5081 55.1004 60.7804 54.4596 60.5235L53.9945 61.6838L53.5294 62.844ZM42.1683 60.8391C42.4756 62.0507 42.4755 62.0507 42.4754 62.0508C42.4754 62.0508 42.4754 62.0508 42.4754 62.0508C42.4754 62.0508 42.4754 62.0508 42.4755 62.0507C42.4758 62.0507 42.4762 62.0506 42.4769 62.0504C42.4783 62.05 42.4806 62.0495 42.4838 62.0486C42.4902 62.047 42.5003 62.0445 42.5137 62.0412C42.5407 62.0345 42.5814 62.0245 42.6344 62.0117C42.7404 61.986 42.8956 61.9491 43.0885 61.9051C43.4751 61.817 44.0101 61.7013 44.6041 61.5902C45.8373 61.3597 47.1695 61.1807 47.9897 61.241L48.0814 59.9944L48.1732 58.7478C46.9921 58.6609 45.3678 58.9042 44.1447 59.1328C43.5106 59.2513 42.9425 59.3743 42.5331 59.4676C42.3281 59.5143 42.162 59.5538 42.0463 59.5818C41.9884 59.5958 41.9431 59.607 41.9118 59.6147C41.8961 59.6186 41.8839 59.6217 41.8754 59.6238C41.8712 59.6249 41.8678 59.6257 41.8654 59.6263C41.8642 59.6266 41.8633 59.6269 41.8626 59.627C41.8622 59.6271 41.8619 59.6272 41.8616 59.6273C41.8615 59.6273 41.8614 59.6273 41.8613 59.6274C41.8612 59.6274 41.8611 59.6274 42.1683 60.8391ZM48.0814 59.9944L47.9897 61.241C48.8587 61.305 50.2041 61.679 51.4254 62.0832C52.0158 62.2786 52.5445 62.4698 52.9256 62.6123C53.1159 62.6834 53.2686 62.742 53.3729 62.7826C53.4251 62.8029 53.4651 62.8186 53.4917 62.8291C53.5049 62.8343 53.5148 62.8382 53.5212 62.8408C53.5243 62.842 53.5266 62.8429 53.528 62.8435C53.5287 62.8438 53.5291 62.8439 53.5294 62.844C53.5295 62.8441 53.5296 62.8441 53.5296 62.8441C53.5296 62.8441 53.5295 62.8441 53.5295 62.8441C53.5295 62.8441 53.5294 62.844 53.9945 61.6838C54.4596 60.5235 54.4595 60.5235 54.4594 60.5235C54.4593 60.5234 54.4592 60.5234 54.4591 60.5233C54.4588 60.5232 54.4585 60.5231 54.4582 60.523C54.4575 60.5227 54.4566 60.5223 54.4554 60.5219C54.4531 60.5209 54.4498 60.5196 54.4457 60.518C54.4374 60.5147 54.4255 60.51 54.4102 60.5039C54.3796 60.4918 54.3353 60.4744 54.2786 60.4524C54.1652 60.4083 54.0023 60.3458 53.8008 60.2705C53.3983 60.1201 52.8388 59.9176 52.211 59.7098C50.996 59.3077 49.3849 58.837 48.1732 58.7478L48.0814 59.9944Z" fill="black"/>
</svg>
