<svg width="221" height="236" viewBox="0 0 221 236" fill="none" xmlns="http://www.w3.org/2000/svg">
<path d="M73.5076 98.9255C73.5073 96.5356 70.6782 91.9563 68.0606 91.8007C64.9168 91.6139 61.2527 96.0791 61.2525 100.351C61.2523 105.502 64.8685 104.148 69.0181 104.148C72.6816 104.148 73.5079 101.775 73.5076 98.9255Z" fill="black"/>
<path d="M158.114 97.5009C157.392 95.2336 155.517 91.9564 152.899 91.8009C149.755 91.614 147.22 96.0753 147.22 100.351C147.22 105.502 149.731 103.686 153.857 104.148C158.113 104.626 159.475 101.775 158.114 97.5009Z" fill="black"/>
<path d="M110.27 166.838C111.186 166.754 115.085 161.342 113.759 160.134C112.373 158.872 107.796 159.152 106.085 160.835C104.374 162.518 109.354 166.922 110.27 166.838Z" fill="black"/>
<path d="M104.486 170.713C108.032 168.9 110.696 167.078 110.696 167.078C110.696 167.078 113.327 168.95 116.84 170.831" stroke="black" stroke-width="3" stroke-linecap="round"/>
<path d="M35.3262 152.462C34.4017 145.096 40.3337 134.486 43.4152 130.101C38.6962 123.525 38.6962 117.211 38.6962 113.002C38.6962 108.793 42.1629 102.48 46.7852 99.8489C47.1704 96.3414 45.7991 90.2558 47.9408 85.3803C49.0964 82.7497 53.7186 80.119 56.1266 80.119C57.1854 76.173 60.6521 65.6504 65.3711 65.6504C71.0522 65.6504 78.0824 74.8577 78.0824 80.119C81.4524 80.119 84.1549 83.2412 85.0159 85.3803C86.0747 88.011 87.327 94.5876 87.327 98.5336C90.0233 96.3414 96.2267 90.6416 100.038 90.6416C104.564 90.6416 108.031 91.9569 110.342 93.2723C112.653 91.9569 117.275 90.6416 121.897 90.6416C126.616 90.6416 130.468 96.7798 134.705 99.8489C134.32 97.2183 133.781 91.1678 134.705 88.011C135.63 84.8542 140.483 81.4343 142.794 80.119C143.565 75.2961 146.723 65.6504 153.195 65.6504C159.666 65.6504 165.136 75.2961 167.061 80.119C168.602 80.9959 172.377 83.8019 175.15 88.011C177.924 92.22 176.306 99.4105 175.15 102.48C178.617 103.795 186.244 108.267 189.017 115.633C191.791 122.999 187.862 134.486 185.551 139.309C187.477 143.693 188.921 155.093 186.609 162.985C184.76 169.298 175.439 173.507 171.587 174.823C169.276 178.33 165.809 186.134 158.876 189.291C150.787 192.974 135.379 189.291 129.986 187.976C125.364 190.607 121.016 194.115 110.438 194.553C96.6411 195.123 89.6381 190.607 85.0159 187.976C81.5491 188.853 68.7411 191.922 60.6521 187.976C53.6452 184.558 48.326 174.384 47.9408 169.561C44.8592 166.931 36.2506 159.828 35.3262 152.462Z" stroke="black" stroke-width="3.5" stroke-linejoin="round"/>
<path d="M70.2847 169.207C82.7004 169.207 95.3403 159.443 112.068 158.8C128.08 158.185 144.898 170.247 159.224 169.207C177.131 167.906 175.959 152.208 176.556 144.403C177.153 136.598 175.492 128.142 167.602 122.939C144.92 107.979 72.6941 112.296 54.7869 122.939C48.2209 126.841 46.2896 134.422 45.6926 147.431C45.0957 160.439 54.7651 169.207 70.2847 169.207Z" fill="#C5C5C5" stroke="black" stroke-width="2.5" stroke-linejoin="round"/>
<path d="M74.2288 163.219C85.3672 163.219 96.7068 155.373 111.714 154.857C126.078 154.362 141.166 164.056 154.018 163.219C170.083 162.174 169.032 149.559 169.567 143.288C170.103 137.016 168.613 130.221 161.535 126.04C141.186 114.019 76.3904 117.487 60.3254 126.04C54.4349 129.176 51.2222 134.925 50.6867 145.378C50.1512 155.831 60.3058 163.219 74.2288 163.219Z" fill="#F3F3F3" stroke="black" stroke-width="2.5" stroke-linejoin="round"/>
<path d="M106.841 144.545C106.566 141.478 106.234 136.905 109.127 137.294C111.892 137.666 111.774 141.607 111.578 144.545C111.42 146.907 111.997 149.887 109.782 150.242C107.411 150.623 107.067 147.068 106.841 144.545Z" fill="#B4B4B4"/>
<path d="M78.7599 149.16C78.434 145.887 78.8176 139.876 82.2456 140.291C85.5224 140.688 84.6027 146.025 84.3701 149.16C84.1832 151.68 84.0912 154.861 81.4658 155.24C78.6553 155.646 79.028 151.853 78.7599 149.16Z" fill="#B4B4B4"/>
<path d="M135.964 149.032C135.621 145.759 134.902 140.88 138.504 141.295C141.947 141.692 141.8 145.897 141.556 149.032C141.359 151.551 140.847 156.19 138.504 155.11C135.842 153.883 136.246 151.724 135.964 149.032Z" fill="#B4B4B4"/>
<path d="M14.4627 53.5363C14.4627 53.5363 18.6684 61.2551 22.4856 59.9159C26.9447 58.3515 19.6814 48.3529 19.6814 48.3529C19.6814 48.3529 27.8461 57.9094 31.5803 54.2823C34.1419 51.7941 32.3841 45.2723 32.3841 45.2723M58.2599 38.9972C58.2599 38.9972 60.2106 47.945 63.5722 46.5239C66.5464 45.2665 64.6003 38.439 64.6003 38.439C64.6003 38.439 66.5108 43.9999 69.4639 44.1156C73.4304 44.2711 71.567 34.3009 71.567 34.3009M78.8162 12.6236L82.707 30.9658M45.0867 42.1918C43.0755 42.9185 41.7247 44.7612 42.2203 46.8047C42.7159 48.8483 44.7607 49.8675 46.8814 49.5921C49.2819 49.2805 51.2497 47.0642 50.6888 44.751C50.1278 42.4379 47.3633 41.3692 45.0867 42.1918ZM84.9303 37.6357C84.0674 38.0804 83.6622 38.901 83.8186 39.859C84.0226 41.1082 85.4024 41.9424 86.5978 41.5265C87.8081 41.1054 88.3671 39.5388 87.7094 38.439C87.1296 37.4694 85.9345 37.1182 84.9303 37.6357Z" stroke="#61B9CD" stroke-width="3"/>
<path d="M19.5508 197.908C21.513 204.882 41.9655 236.232 50.5839 223.19C55.0949 216.364 40.4192 204.598 42.7367 194.08C43.86 188.982 38.3201 179.606 32.3188 180.09C26.3175 180.574 17.0981 189.191 19.5508 197.908Z" fill="#C5C5C5" stroke="black" stroke-width="3"/>
<path d="M208.616 194.446C206.869 201.477 187.389 233.441 178.374 220.671C173.656 213.986 187.963 201.774 185.323 191.333C184.044 186.272 189.293 176.73 195.306 177.029C201.319 177.329 210.799 185.658 208.616 194.446Z" fill="#C5C5C5" stroke="black" stroke-width="3"/>
</svg>
