<svg width="221" height="236" viewBox="0 0 221 236" fill="none" xmlns="http://www.w3.org/2000/svg">
<g clip-path="url(#clip0_6617_553)">
<path d="M89.0412 180.073C89.2698 177.888 87.0091 174.233 84.4612 174.229C82.1552 174.226 80.1835 176.421 79.9803 178.363C79.7263 180.791 79.3452 184.434 83.3499 184.852C87.3952 185.276 88.7554 182.805 89.0412 180.073Z" fill="#432F0A"/>
<path d="M133.631 182.251C133.884 179.836 136.269 177.273 139.056 177.326C142.403 177.389 145.12 180.096 144.107 184.262C142.87 189.347 138.522 189.224 137.092 188.903C134.553 188.332 133.316 185.269 133.631 182.251Z" fill="#432F0A"/>
<path d="M110.791 195.4C111.72 195.39 116.043 190.477 114.795 189.213C113.491 187.893 108.86 187.813 107.013 189.302C105.167 190.792 109.863 195.411 110.791 195.4Z" fill="#432F0A"/>
<path d="M103.922 198.376C108.265 199.823 111.009 195.658 111.009 195.658C111.009 195.658 112.607 199.823 117.335 199.072" stroke="#432F0A" stroke-width="3" stroke-linecap="round"/>
<path d="M39.6902 151.138C40.9133 140.045 47.8442 134.19 53.4501 132.65C51.9212 129.055 45.8058 123.405 45.8058 117.243C45.8058 111.08 52.4308 106.142 54.9789 105.115C55.4885 102.547 59.2597 95.364 64.1521 94.1314C69.0444 92.8988 74.8541 95.672 78.0398 100.492C82.4984 100.492 85.6782 103.333 87.213 106.457C90.1427 112.422 89.6331 116.434 88.6139 121.056C91.5437 119.318 97.1755 117.243 100.845 117.243C104.514 117.243 110.4 119.002 111.419 121.056C113.967 119.002 118.646 116.876 123.778 118.783C129.893 121.056 134.321 124.239 137.216 127.134C137.088 122.314 133.82 113.198 142.252 108.196C145.182 106.457 149.768 105.115 154.355 106.457C156.393 103.376 166.408 99.5677 171.3 102.033C176.193 104.498 177.416 112.304 177.416 115.899C180.346 118.981 183.403 124.056 183.403 129.568C183.403 135.731 176.906 140.037 171.3 143.632C175.377 149.282 183.403 156.289 183.403 165.005C183.403 170.97 185.188 178.967 177.416 183.59C184.55 188.725 186.871 200.661 177.416 211.424C168.116 222.009 152.96 218.615 148.37 217.587L148.367 217.587C144.8 221.695 134.608 229.912 122.377 229.912C110.146 229.912 108.361 226.436 103.902 222.011C99.3158 226.12 86.0563 229.663 78.0398 226.633C65.8089 222.011 62.9068 217.587 60.3587 211.424C55.772 209.883 45.8054 209.589 39.69 200.961C33.5746 192.333 40.7096 175.79 45.8058 171.168C41.7288 169.113 38.4671 162.231 39.6902 151.138Z" stroke="#432F0A" stroke-width="3.5" stroke-linejoin="round"/>
<path d="M60.5131 177.168C60.0063 166.344 69.9833 157.079 81.6406 157.55C92.8229 158.001 101.494 166.785 101.008 177.168C100.543 187.091 92.3266 194.72 81.6406 195.152C70.4584 195.603 60.9993 187.552 60.5131 177.168Z" stroke="black" stroke-width="3" stroke-linejoin="round"/>
<path d="M121.311 180.064C120.804 169.239 130.781 159.975 142.438 160.445C153.621 160.897 162.292 169.68 161.805 180.064C161.341 189.986 153.124 197.616 142.438 198.047C131.256 198.499 121.797 190.447 121.311 180.064Z" stroke="black" stroke-width="3" stroke-linejoin="round"/>
<path d="M111.159 177.799L111.049 179.295L111.159 177.799ZM120.734 182.087C121.503 182.395 122.377 182.022 122.685 181.253C122.993 180.484 122.62 179.61 121.851 179.302L121.293 180.695L120.734 182.087ZM101.026 179.247C101.395 180.701 101.395 180.701 101.395 180.701C101.395 180.701 101.395 180.701 101.395 180.701C101.395 180.701 101.395 180.701 101.395 180.701C101.396 180.701 101.397 180.7 101.398 180.7C101.401 180.7 101.405 180.698 101.411 180.697C101.422 180.694 101.44 180.69 101.464 180.684C101.511 180.672 101.582 180.655 101.674 180.632C101.858 180.588 102.127 180.524 102.461 180.448C103.129 180.296 104.054 180.095 105.083 179.903C107.193 179.508 109.551 179.185 111.049 179.295L111.159 177.799L111.27 176.304C109.338 176.161 106.63 176.562 104.531 176.954C103.455 177.155 102.49 177.364 101.794 177.523C101.446 177.602 101.164 177.669 100.968 177.717C100.87 177.74 100.794 177.759 100.741 177.772C100.715 177.779 100.695 177.784 100.681 177.787C100.674 177.789 100.668 177.79 100.664 177.791C100.662 177.792 100.661 177.792 100.66 177.792C100.659 177.793 100.659 177.793 100.658 177.793C100.658 177.793 100.658 177.793 100.658 177.793C100.658 177.793 100.658 177.793 101.026 179.247ZM111.159 177.799L111.049 179.295C112.627 179.412 115 180.077 117.092 180.769C118.113 181.107 119.027 181.438 119.686 181.684C120.015 181.807 120.279 181.909 120.46 181.979C120.551 182.014 120.62 182.042 120.667 182.06C120.69 182.069 120.708 182.076 120.719 182.081C120.725 182.083 120.729 182.085 120.731 182.086C120.733 182.086 120.734 182.086 120.734 182.087C120.734 182.087 120.734 182.087 120.735 182.087C120.735 182.087 120.735 182.087 120.735 182.087C120.735 182.087 120.734 182.087 121.293 180.695C121.851 179.302 121.851 179.302 121.85 179.302C121.85 179.302 121.85 179.302 121.85 179.302C121.85 179.302 121.849 179.302 121.849 179.301C121.848 179.301 121.846 179.3 121.844 179.3C121.84 179.298 121.835 179.296 121.828 179.293C121.815 179.288 121.795 179.28 121.769 179.27C121.718 179.25 121.643 179.22 121.547 179.183C121.355 179.108 121.078 179.002 120.736 178.874C120.052 178.618 119.101 178.274 118.035 177.921C115.951 177.232 113.258 176.45 111.27 176.304L111.159 177.799Z" fill="black"/>
<path d="M129.975 12.7726C126.258 3.03281 101.411 4.04538 101.411 14.2211C101.412 25.8026 105.369 51.8592 115.499 67.7808C120.852 57.9718 125.654 44.8654 128.213 32.8623M114.052 79.3615C116.423 78.4851 119.099 79.8403 119.842 82.2567C120.673 84.9583 118.325 88.1127 115.499 88.047C113.101 87.9913 111.234 86.1015 111.157 83.7043C111.091 81.667 112.14 80.0681 114.052 79.3615Z" stroke="#FF9999" stroke-width="3" stroke-linecap="round" stroke-linejoin="round"/>
<g clip-path="url(#clip1_6617_553)">
<g filter="url(#filter0_d_6617_553)">
<path d="M146.777 13.5367L148.463 15.2233L131.853 31.8333H130.167V30.1467L146.777 13.5367V13.5367ZM153.377 2.5C152.918 2.5 152.442 2.68333 152.093 3.03167L148.738 6.38667L155.613 13.2617L158.968 9.90667C159.683 9.19167 159.683 8.03667 158.968 7.32167L154.678 3.03167C154.312 2.665 153.853 2.5 153.377 2.5V2.5ZM146.777 8.34833L126.5 28.625V35.5H133.375L153.652 15.2233L146.777 8.34833V8.34833Z" fill="#323232"/>
</g>
</g>
<path d="M25.4722 56.2329L28.7875 66.2798M32.1028 76.3266L28.7875 66.2798M28.7875 66.2798L34.3429 64.609M28.7875 66.2798L23.2321 67.9505M37.0618 57.2339L41.8387 73.3295C40.7845 68.5733 42.1602 63.4313 43.8548 62.7836C45.9731 61.974 48.5702 65.507 50.7193 71.3834M53.4788 60.3724L57.3695 70.8329M59.0902 58.4087L62.3495 68.7485C63.7243 68.404 62.6724 58.3914 66.3718 57.9789C70.3844 57.5314 73.0529 64.1144 74.3871 67.406M72.5838 49.4497L76.8136 60.5823M79.5505 67.7858L76.8136 60.5823M76.8136 60.5823L81.9026 55.4823M76.8136 60.5823L88.1356 63.9614" stroke="#FF9999" stroke-width="3"/>
</g>
<defs>
<filter id="filter0_d_6617_553" x="122.5" y="1.5" width="41.0044" height="41" filterUnits="userSpaceOnUse" color-interpolation-filters="sRGB">
<feFlood flood-opacity="0" result="BackgroundImageFix"/>
<feColorMatrix in="SourceAlpha" type="matrix" values="0 0 0 0 0 0 0 0 0 0 0 0 0 0 0 0 0 0 127 0" result="hardAlpha"/>
<feOffset dy="3"/>
<feGaussianBlur stdDeviation="2"/>
<feComposite in2="hardAlpha" operator="out"/>
<feColorMatrix type="matrix" values="0 0 0 0 0 0 0 0 0 0 0 0 0 0 0 0 0 0 0.25 0"/>
<feBlend mode="normal" in2="BackgroundImageFix" result="effect1_dropShadow_6617_553"/>
<feBlend mode="normal" in="SourceGraphic" in2="effect1_dropShadow_6617_553" result="shape"/>
</filter>
<clipPath id="clip0_6617_553">
<rect width="220" height="236" fill="white" transform="translate(0.5)"/>
</clipPath>
<clipPath id="clip1_6617_553">
<rect width="44" height="44" fill="white" transform="translate(121 -3)"/>
</clipPath>
</defs>
</svg>
