<svg width="221" height="237" viewBox="0 0 221 237" fill="none" xmlns="http://www.w3.org/2000/svg">
<path d="M100.041 95.4813C100.278 93.2165 97.9345 89.4288 95.2939 89.4249C92.904 89.4214 90.8605 91.696 90.6499 93.7092C90.3866 96.2257 89.9917 100 94.1421 100.435C98.3347 100.873 99.7444 98.3124 100.041 95.4813Z" fill="black"/>
<path d="M134.251 97.738C134.513 95.2355 136.985 92.5793 139.874 92.634C143.342 92.6997 146.158 95.5051 145.108 99.8224C143.826 105.093 139.32 104.965 137.838 104.632C135.206 104.041 133.924 100.866 134.251 97.738Z" fill="black"/>
<path d="M116.581 114.368C117.543 114.357 122.025 109.265 120.731 107.955C119.38 106.587 114.579 106.503 112.666 108.047C110.752 109.591 115.619 114.379 116.581 114.368Z" fill="black"/>
<path d="M110.429 118.486C114.08 116.549 116.806 114.634 116.806 114.634C116.806 114.634 119.622 116.414 123.362 118.172" stroke="black" stroke-width="3" stroke-linecap="round"/>
<line x1="1.5" y1="-1.5" x2="6.33963" y2="-1.5" transform="matrix(-0.62129 0.78358 -0.618823 -0.785531 160.523 105.937)" stroke="black" stroke-width="3" stroke-linecap="round"/>
<path d="M166.177 108.933L164.28 112.972" stroke="black" stroke-width="3" stroke-linecap="round"/>
<line x1="1.5" y1="-1.5" x2="6.11221" y2="-1.5" transform="matrix(-0.577018 0.816731 -0.669347 -0.74295 171.843 107.691)" stroke="black" stroke-width="3" stroke-linecap="round"/>
<line x1="1.5" y1="-1.5" x2="6.38345" y2="-1.5" transform="matrix(-0.597337 0.80199 -0.509968 -0.860194 64.5205 96.792)" stroke="black" stroke-width="3" stroke-linecap="round"/>
<line x1="1.5" y1="-1.5" x2="7.22748" y2="-1.5" transform="matrix(-0.609696 0.792636 -0.494471 -0.869194 71.3911 97.0815)" stroke="black" stroke-width="3" stroke-linecap="round"/>
<path d="M75.8991 102.056L74.7558 104.745" stroke="black" stroke-width="3" stroke-linecap="round"/>
<path d="M44.9279 72.1198C48.5167 61.3536 53.9296 61.6179 62.9312 55.6168C56.7084 55.6168 40.4274 54.1165 37.4266 48.1154C33.6226 40.5078 37.4263 34.9874 46.428 33.3633C46.428 25.3797 53.3602 20.8876 58.4307 19.6101C63.5011 18.3327 70.1318 16.114 73.4334 21.11C78.0543 21.11 85.3452 23.8732 86.9359 27.1114C89.9723 33.293 94.6517 32.5257 93.5953 37.316C96.6317 35.5141 102.469 33.3633 106.271 33.3633C110.074 33.3633 116.174 35.1868 117.23 37.316C119.871 35.1868 124.72 32.9831 130.039 34.9601C136.377 37.316 140.966 40.6141 143.967 43.6146C143.834 38.6195 145.709 32.2962 154.448 27.1114C157.485 25.3099 164.698 22.5955 169.451 23.9872C175.452 18.9768 182.384 21.4324 187.454 23.9872C192.525 26.5421 194.955 35.3732 194.955 39.099C202.576 41.4549 205.457 49.6162 202.457 55.6168C199.6 61.3295 186.158 64.6184 179.953 64.6184C184.178 70.4733 188.264 75.3588 190.455 84.122C191.955 90.1231 191.955 93.1236 185.63 102.125C193.024 107.448 195.429 119.818 185.63 130.973C175.992 141.943 160.283 138.426 155.526 137.36L155.524 137.36C151.827 141.618 141.263 150.134 128.587 150.134C115.911 150.134 114.061 146.531 109.44 141.945C104.687 146.204 90.9446 149.876 82.6363 146.736C69.9603 141.945 66.9525 137.36 64.3117 130.973C59.5581 129.376 49.2286 129.071 42.8907 120.129C36.5527 111.187 43.9474 94.0416 49.2291 89.2512C45.0037 87.1221 41.9274 81.1214 44.9279 72.1198Z" stroke="black" stroke-width="3.5" stroke-linejoin="round"/>
<path d="M71.1102 214.277L18 182.771L23.4472 133.457L78.6001 160.169L77.0832 171.127M71.1102 214.277L106.517 182.771L77.0832 171.127M71.1102 214.277L73.1524 199.524M77.0832 171.127L75.4714 182.771M75.4714 182.771L87.2742 187.337L81.3282 192.468M75.4714 182.771L74.2179 191.827M73.1524 199.524L74.2179 191.827M73.1524 199.524L81.3282 192.468M82.1428 185.413L77.6528 189.047M74.2179 191.827L77.6528 189.047M81.3282 192.468L77.6528 189.047" stroke="#878787" stroke-width="3" stroke-linejoin="round"/>
<path d="M43.4797 162.963C46.452 162.963 47.4428 167.132 47.4428 169.217C48.4336 167.132 51.4069 165.048 54.3782 166.09C57.3505 167.133 56.6896 171.302 55.369 173.386C53.3874 176.513 48.4336 177.903 44.4705 179.64C42.489 176.166 38.5259 171.301 38.5259 168.174C38.5259 164.547 40.3466 162.963 43.4797 162.963Z" fill="#BC99E6"/>
<path d="M149.414 187.96C145.79 181.672 135.953 183.677 132.189 185.322C129.024 186.705 121.01 189.844 115.497 205.409C129.744 209.24 139.628 204.592 144.511 201.254C148.647 198.427 152.131 192.676 149.414 187.96ZM149.414 187.96C151.038 186.035 153.342 181.565 157.884 181.16C161.665 180.822 166.17 183.57 169.367 182.918C173.867 182.001 177.074 175.792 178.392 174.053" stroke="#BC99E6" stroke-width="2.5" stroke-linecap="round" stroke-linejoin="round"/>
<circle cx="120.629" cy="198.883" r="1.28286" fill="black"/>
<circle cx="125.76" cy="204.014" r="1.28286" fill="black"/>
<path d="M118.704 193.11C118.704 190.816 122.033 190.143 123.315 189.93C124.598 189.716 126.663 190.852 127.164 191.854C127.665 192.856 128.875 194.847 125.881 195.061C122.888 195.275 118.704 195.676 118.704 193.11Z" fill="white" stroke="#BC99E6" stroke-width="2.5" stroke-linecap="round" stroke-linejoin="round"/>
<path d="M135.382 206.58C137.434 205.554 137.393 203.208 137.214 201.92C137.035 200.632 135.334 199 134.229 198.821C133.123 198.642 130.861 198.082 131.551 201.003C132.24 203.924 132.816 207.863 135.382 206.58Z" fill="white" stroke="#BC99E6" stroke-width="2.5" stroke-linecap="round" stroke-linejoin="round"/>
</svg>
