<svg width="162" height="172" viewBox="0 0 162 172" fill="none" xmlns="http://www.w3.org/2000/svg">
<path d="M36.2896 13.8207C32.1586 20.5912 32.847 30.7707 34.9307 36.4128C31.6694 40.2348 29.7669 46.7869 30.5823 51.9739C31.3976 57.1609 33.0282 64.805 36.2896 68.6271C31.4882 68.2631 22.8141 69.3679 15.8566 77.2304C8.89903 85.0929 8.97147 97.7966 9.87738 103.166C4.26061 110.992 -0.400597 125.139 3.40438 137.424C6.84286 148.526 21.2921 153.762 28.6301 154.49C32.888 159.222 44.2302 169.014 55.5363 170.324C66.8423 171.635 78.0033 166.138 82.1706 163.226C85.8849 165.41 95.9226 169.56 106.359 168.686C116.795 167.813 124.659 159.768 127.286 155.855C134.986 158.403 150.295 158.129 156.817 144.806C163.34 131.483 159.173 123.14 156.817 119.409C158.154 115.399 162.283 107.318 158.154 95.3524C153.757 82.6079 141.6 80.0514 135.168 79.6874C137.342 75.0464 139.516 67.4023 140.06 57.8472C140.494 50.2031 140.387 44.8636 136.763 43.2256C139.209 39.6765 139.415 35.8641 140.774 29.858C142.133 23.8519 140.774 19.1653 136.763 13.8207C133.702 9.74119 128.742 9.80922 124.731 11.1458C119.383 5.79947 115.372 3.1263 107.35 7.13606C99.3288 11.1458 98.1842 27.8444 99.3288 32.3178C96.8473 34.5273 93.0276 40.4394 91.3969 44.5344C90.0924 47.8105 87.1123 61.256 87.1123 61.256C87.1123 61.256 87.1123 51.974 86.0252 46.7869C84.1838 38.0011 80.4743 34.2288 77.9377 32.3178C79.5684 28.0407 79.0248 18.1762 77.9377 12.9345C76.5788 6.38248 71.6209 3.37946 65.0982 2.28745C59.88 1.41384 55.594 2.64289 53.8727 4.46289C50.6114 1.18685 41.4534 5.35762 36.2896 13.8207Z" stroke="black" stroke-width="2.5" stroke-linecap="round"/>
<path d="M55.4702 118.26C55.4702 115.727 52.7553 112.681 49.8334 112.983C47.189 113.255 45.1914 116.008 45.1914 118.26C45.1914 121.075 45.1914 125.297 49.8334 125.297C54.5226 125.297 55.4702 121.427 55.4702 118.26Z" fill="black"/>
<path d="M96.585 119.286C96.585 116.487 99.0126 113.262 102.214 112.988C106.06 112.659 109.5 115.437 108.837 120.335C108.029 126.314 103.893 127.53 102.214 127.333C99.2341 126.983 96.585 122.784 96.585 119.286Z" fill="black"/>
<path d="M77.2451 137.78C78.3157 137.78 83.3647 132.174 81.9425 130.7C80.4569 129.161 75.1186 129.008 72.9705 130.701C70.8223 132.393 76.1746 137.78 77.2451 137.78Z" fill="black"/>
<path d="M69.8604 141.742C73.9719 139.687 77.0555 137.631 77.0555 137.631C77.0555 137.631 80.1391 139.687 84.2506 141.742" stroke="black" stroke-width="1.5" stroke-linecap="round"/>
<line x1="0.75" y1="-0.75" x2="7.97068" y2="-0.75" transform="matrix(-0.536392 0.843969 -0.697194 -0.716883 126.599 125.315)" stroke="black" stroke-width="1.5" stroke-linecap="round"/>
<line x1="0.75" y1="-0.75" x2="7.1064" y2="-0.75" transform="matrix(-0.522605 0.852575 -0.71071 -0.703485 131.976 125.581)" stroke="black" stroke-width="1.5" stroke-linecap="round"/>
<line x1="0.75" y1="-0.75" x2="7.7177" y2="-0.75" transform="matrix(-0.488911 0.872334 -0.743014 -0.669276 137.355 125.848)" stroke="black" stroke-width="1.5" stroke-linecap="round"/>
<line x1="0.75" y1="-0.75" x2="8.01942" y2="-0.75" transform="matrix(-0.510653 0.859787 -0.596698 -0.802466 19.0557 123.716)" stroke="black" stroke-width="1.5" stroke-linecap="round"/>
<line x1="0.75" y1="-0.75" x2="8.95831" y2="-0.75" transform="matrix(-0.523918 0.851769 -0.582221 -0.81303 26.6875 123.24)" stroke="black" stroke-width="1.5" stroke-linecap="round"/>
<line x1="0.75" y1="-0.75" x2="8.01942" y2="-0.75" transform="matrix(-0.510653 0.859787 -0.596698 -0.802466 32.0361 124.06)" stroke="black" stroke-width="1.5" stroke-linecap="round"/>
</svg>
