<svg width="96" height="96" viewBox="0 0 96 96" fill="none" xmlns="http://www.w3.org/2000/svg">
<g clip-path="url(#clip0_6617_965)">
<path d="M6.0342 45.3804C8.04876 39.3367 11.0873 39.4851 16.1404 36.1163C12.6472 36.1163 3.50779 35.2742 1.82331 31.9054C-0.31209 27.6349 1.82314 24.536 6.87626 23.6243C6.87626 19.1426 10.7677 16.621 13.614 15.9039C16.4603 15.1868 20.1825 13.9413 22.0359 16.7458C24.6299 16.7458 28.7226 18.2969 29.6156 20.1148C31.3201 23.5848 33.9469 23.1541 33.3539 25.8431C35.0584 24.8316 38.3349 23.6243 40.4697 23.6243C42.6044 23.6243 46.0285 24.6479 46.6215 25.8431C48.104 24.6479 50.826 23.4108 53.8117 24.5206C57.3696 25.8431 59.9458 27.6945 61.6302 29.3789C61.5558 26.5749 62.6084 23.0252 67.514 20.1148C69.2185 19.1035 73.2674 17.5797 75.9358 18.361C79.3046 15.5483 83.1958 16.9268 86.0421 18.361C88.8884 19.7952 90.2529 24.7525 90.2529 26.844C94.5309 28.1665 96.1482 32.7479 94.4638 36.1163C92.8602 39.3232 85.3144 41.1695 81.831 41.1695C84.2029 44.4562 86.4965 47.1987 87.7263 52.1179C88.5685 55.4866 88.5685 57.171 85.0177 62.2242C89.1686 65.2121 90.5184 72.1562 85.0177 78.4177C79.6074 84.5762 70.7894 82.6015 68.1192 82.0035L68.1177 82.0032C66.0423 84.3935 60.1125 89.1741 52.9967 89.1741C45.8809 89.1741 44.8425 87.1515 42.2485 84.5774C39.5801 86.9677 31.8659 89.029 27.202 87.2665C20.0862 84.5774 18.3978 82.0032 16.9154 78.4177C14.2469 77.5213 8.44844 77.3501 4.89059 72.3304C1.33275 67.3107 5.4838 57.6863 8.44867 54.9972C6.07674 53.802 4.34983 50.4335 6.0342 45.3804Z" fill="#F3FCFD" stroke="black" stroke-width="3" stroke-linejoin="round"/>
<path d="M36.9723 58.494C37.1053 57.2227 35.7901 55.0964 34.3077 55.0942C32.9662 55.0923 31.819 56.3691 31.7008 57.4992C31.553 58.9119 31.3314 61.0308 33.6612 61.2746C36.0147 61.5208 36.8061 60.0833 36.9723 58.494Z" fill="black"/>
<path d="M56.176 59.7608C56.323 58.356 57.7108 56.865 59.3321 56.8957C61.2794 56.9325 62.8599 58.5074 62.2704 60.9309C61.5507 63.8893 59.0215 63.8178 58.1896 63.6308C56.7122 63.2988 55.9923 61.5168 56.176 59.7608Z" fill="black"/>
<path d="M46.2571 69.0954C46.7973 69.0892 49.3128 66.231 48.5866 65.4957C47.8281 64.7277 45.1334 64.6809 44.0592 65.5475C42.9851 66.4142 45.7169 69.1016 46.2571 69.0954Z" fill="black"/>
<path d="M42.8044 71.4077C44.8535 70.3204 46.384 69.2455 46.384 69.2455C46.384 69.2455 47.9648 70.245 50.0642 71.2318" stroke="black" stroke-width="2.5" stroke-linecap="round"/>
<line x1="1.25" y1="-1.25" x2="3.15081" y2="-1.25" transform="matrix(-0.62129 0.78358 -0.618823 -0.785531 70.9243 64.3633)" stroke="black" stroke-width="2.5" stroke-linecap="round"/>
<path d="M74.0974 66.0465L73.0328 68.3137" stroke="black" stroke-width="2.5" stroke-linecap="round"/>
<line x1="1.25" y1="-1.25" x2="3.02315" y2="-1.25" transform="matrix(-0.577018 0.816731 -0.669347 -0.74295 77.2786 65.3486)" stroke="black" stroke-width="2.5" stroke-linecap="round"/>
<line x1="1.25" y1="-1.25" x2="3.17541" y2="-1.25" transform="matrix(-0.597337 0.80199 -0.509968 -0.860194 17.0327 59.2305)" stroke="black" stroke-width="2.5" stroke-linecap="round"/>
<line x1="1.25" y1="-1.25" x2="3.64921" y2="-1.25" transform="matrix(-0.609696 0.792636 -0.494471 -0.869194 20.8887 59.3926)" stroke="black" stroke-width="2.5" stroke-linecap="round"/>
<path d="M23.4196 62.1845L22.7778 63.6942" stroke="black" stroke-width="2.5" stroke-linecap="round"/>
</g>
<defs>
<clipPath id="clip0_6617_965">
<rect width="96" height="96" fill="white"/>
</clipPath>
</defs>
</svg>
