<svg width="96" height="96" viewBox="0 0 96 96" fill="none" xmlns="http://www.w3.org/2000/svg">
<path d="M3.05684 64.0273C2.51345 59.6977 6.0002 53.461 7.8115 50.8839C5.03771 47.0182 5.03771 43.3071 5.03771 40.8331C5.03771 38.359 7.07542 34.6479 9.79237 33.1017C10.0188 31.04 9.21275 27.4629 10.4716 24.5971C11.1508 23.0508 13.8678 21.5045 15.2832 21.5045C15.9055 19.1851 17.9432 13 20.7171 13C24.0564 13 28.1887 18.412 28.1887 21.5045C30.1695 21.5045 31.758 23.3397 32.2641 24.5971C32.8864 26.1434 33.6226 30.0091 33.6226 32.3285C35.2075 31.04 38.8537 27.6897 41.0942 27.6897C43.7542 27.6897 45.792 28.4628 47.1504 29.236C48.5089 28.4628 51.2259 27.6897 53.9428 27.6897C56.7166 27.6897 58.9808 31.2977 61.4713 33.1017C61.2449 31.5554 60.9279 27.9989 61.4713 26.1434C62.0147 24.2879 64.8675 22.2777 66.226 21.5045C66.6788 18.6697 68.5354 13 72.3391 13C76.1428 13 79.3579 18.6697 80.4899 21.5045C81.3956 22.02 83.6144 23.6693 85.2446 26.1434C86.8748 28.6174 85.9238 32.8439 85.2446 34.6479C87.2823 35.4211 91.7653 38.0498 93.3955 42.3794C95.0256 46.7089 92.7162 53.461 91.3577 56.2959C92.4898 58.873 93.3386 65.5736 91.9801 70.2124C90.8933 73.9235 85.4141 76.3975 83.15 77.1707C81.7915 79.2324 79.7538 83.8197 75.6784 85.6752C70.9237 87.84 61.8672 85.6752 58.6975 84.9021C55.9805 86.4484 53.425 88.5106 47.2073 88.7678C39.0973 89.1032 34.981 86.4484 32.2641 84.9021C30.2264 85.4175 22.6979 87.2215 17.9432 84.9021C13.8246 82.893 10.698 76.913 10.4716 74.0781C8.6603 72.5318 3.60023 68.3569 3.05684 64.0273Z" fill="#FFD899" stroke="black" stroke-width="3" stroke-linejoin="round"/>
<path d="M56.8995 57.0682C56.863 55.731 57.9437 53.5427 59.426 53.5427C61.1106 53.5426 62.4727 55.5952 62.5051 56.7839C62.5457 58.2697 62.6066 60.4984 60.265 60.5684C57.8996 60.6392 56.9451 58.7397 56.8995 57.0682Z" fill="black"/>
<path d="M37.5282 57.0685C37.4879 55.591 36.6206 54.5208 35.0015 54.4246C33.057 54.309 31.762 55.305 31.7619 57.947C31.7618 61.1333 34.7832 61.2165 35.6269 61.0872C37.1252 60.8576 37.5786 58.9154 37.5282 57.0685Z" fill="black"/>
<path d="M25.5001 32.5592C25.4999 31.1545 23.837 28.4628 22.2984 28.3713C20.4504 28.2615 18.2967 30.8861 18.2966 33.3969C18.2965 36.4249 20.4221 35.6292 22.8612 35.6292C25.0145 35.6292 25.5002 34.2341 25.5001 32.5592Z" fill="black"/>
<path d="M75.2311 31.7215C74.8067 30.3888 73.7045 28.4625 72.1659 28.371C70.318 28.2612 68.8281 30.8835 68.828 33.3965C68.828 36.4245 70.3035 35.3571 72.7287 35.6289C75.2309 35.9093 76.0314 34.234 75.2311 31.7215Z" fill="black"/>
<path d="M47.1091 67.7331C47.6473 67.6839 49.9395 64.5024 49.1598 63.7925C48.3454 63.0511 45.6549 63.2154 44.6493 64.2047C43.6437 65.1941 46.5709 67.7823 47.1091 67.7331Z" fill="black"/>
<path d="M43.7089 70.0111C45.7931 68.9452 47.3586 67.8744 47.3586 67.8744C47.3586 67.8744 48.9052 68.9749 50.9705 70.0803" stroke="black" stroke-width="2.5" stroke-linecap="round"/>
<line x1="1.25" y1="-1.25" x2="3.29224" y2="-1.25" transform="matrix(-0.542833 0.839841 -0.659619 -0.7516 71.3469 60.8433)" stroke="black" stroke-width="2.5" stroke-linecap="round"/>
<path d="M74.6386 62.348L73.7484 64.7981" stroke="black" stroke-width="2.5" stroke-linecap="round"/>
<line x1="1.25" y1="-1.25" x2="3.17033" y2="-1.25" transform="matrix(-0.496524 0.868023 -0.707726 -0.706487 77.7576 61.3691)" stroke="black" stroke-width="2.5" stroke-linecap="round"/>
<line x1="1.25" y1="-1.25" x2="3.32327" y2="-1.25" transform="matrix(-0.517704 0.85556 -0.55605 -0.831149 17.222 62.4917)" stroke="black" stroke-width="2.5" stroke-linecap="round"/>
<line x1="1.25" y1="-1.25" x2="3.80972" y2="-1.25" transform="matrix(-0.530647 0.847593 -0.541323 -0.840815 21.0792 62.356)" stroke="black" stroke-width="2.5" stroke-linecap="round"/>
<path d="M23.8144 65.069L23.2886 66.6952" stroke="black" stroke-width="2.5" stroke-linecap="round"/>
</svg>
