<svg width="96" height="96" viewBox="0 0 96 96" fill="none" xmlns="http://www.w3.org/2000/svg">
<path d="M25.2936 10.9653C23.2089 14.3819 23.5563 19.5189 24.6078 22.3662C22.962 24.2949 22.002 27.6014 22.4134 30.219C22.8249 32.8365 23.6478 36.6941 25.2936 38.6228C22.8706 38.4391 18.4933 38.9967 14.9822 42.9644C11.4712 46.9321 11.5077 53.3429 11.9649 56.0524C9.13045 60.0017 6.77821 67.1409 8.69836 73.3404C10.4336 78.9429 17.7252 81.5855 21.4283 81.9528C23.577 84.3408 29.3008 89.2821 35.0062 89.9434C40.7117 90.6047 46.344 87.831 48.447 86.3614C50.3214 87.4636 55.3869 89.5577 60.6535 89.1168C65.92 88.6759 69.8883 84.6164 71.2141 82.6417C75.1 83.9275 82.8252 83.7889 86.1168 77.0658C89.4085 70.3427 87.3055 66.1324 86.1168 64.2495C86.7915 62.2261 88.8749 58.1479 86.7915 52.1095C84.5726 45.6781 78.4373 44.388 75.1914 44.2043C76.2887 41.8623 77.3859 38.0047 77.6602 33.1828C77.8796 29.3253 77.8254 26.6308 75.9967 25.8042C77.2311 24.0132 77.335 22.0893 78.0207 19.0583C78.7065 16.0274 78.0207 13.6624 75.9967 10.9653C74.4518 8.90659 71.9486 8.94092 69.9246 9.61541C67.2259 6.91743 65.2019 5.56844 61.1538 7.59193C57.1058 9.61541 56.5282 18.0422 57.1058 20.2997C55.8535 21.4147 53.9259 24.3982 53.103 26.4647C52.4447 28.1179 50.9408 34.9031 50.9408 34.9031C50.9408 34.9031 50.9408 30.219 50.3922 27.6014C49.463 23.1677 47.591 21.264 46.3109 20.2997C47.1338 18.1413 46.8595 13.1632 46.3109 10.5181C45.6252 7.21164 43.1232 5.69619 39.8316 5.14512C37.1983 4.70426 35.0354 5.32449 34.1668 6.24294C32.521 4.58972 27.8995 6.69445 25.2936 10.9653Z" fill="#F5C5C5" stroke="black" stroke-width="3" stroke-linecap="round" stroke-linejoin="round"/>
<path d="M34.9729 63.6692C34.9729 62.3909 33.6028 60.854 32.1283 61.0061C30.7939 61.1437 29.7858 62.5329 29.7858 63.6692C29.7858 65.0896 29.7858 67.2201 32.1283 67.2201C34.4947 67.2201 34.9729 65.2671 34.9729 63.6692Z" fill="black"/>
<path d="M55.7223 64.1868C55.7223 62.7744 56.9474 61.147 58.5631 61.0089C60.5037 60.8429 62.2395 62.2447 61.9053 64.7165C61.4973 67.7337 59.41 68.3471 58.5631 68.2476C57.0592 68.0711 55.7223 65.9524 55.7223 64.1868Z" fill="black"/>
<path d="M45.9614 73.5202C46.5016 73.5202 49.0496 70.691 48.3319 69.9474C47.5822 69.1707 44.8882 69.0931 43.8042 69.9474C42.7202 70.8018 45.4211 73.5202 45.9614 73.5202Z" fill="black"/>
<path d="M42.236 75.5197C44.3108 74.4822 45.8669 73.4448 45.8669 73.4448C45.8669 73.4448 47.4231 74.4822 49.4979 75.5197" stroke="black" stroke-width="2.5" stroke-linecap="round"/>
<line x1="1.25" y1="-1.25" x2="3.15081" y2="-1.25" transform="matrix(-0.536392 0.843969 -0.697194 -0.716883 70.8676 67.2295)" stroke="black" stroke-width="2.5" stroke-linecap="round"/>
<line x1="1.25" y1="-1.25" x2="2.71466" y2="-1.25" transform="matrix(-0.522605 0.852575 -0.71071 -0.703485 73.5812 67.3643)" stroke="black" stroke-width="2.5" stroke-linecap="round"/>
<line x1="1.25" y1="-1.25" x2="3.02315" y2="-1.25" transform="matrix(-0.488911 0.872334 -0.743014 -0.669276 76.2947 67.499)" stroke="black" stroke-width="2.5" stroke-linecap="round"/>
<line x1="1.25" y1="-1.25" x2="3.17541" y2="-1.25" transform="matrix(-0.510653 0.859787 -0.596698 -0.802466 16.5958 66.4229)" stroke="black" stroke-width="2.5" stroke-linecap="round"/>
<line x1="1.25" y1="-1.25" x2="3.64921" y2="-1.25" transform="matrix(-0.523918 0.851769 -0.582221 -0.81303 20.4491 66.1826)" stroke="black" stroke-width="2.5" stroke-linecap="round"/>
<line x1="1.25" y1="-1.25" x2="3.17541" y2="-1.25" transform="matrix(-0.510653 0.859787 -0.596698 -0.802466 23.1482 66.5967)" stroke="black" stroke-width="2.5" stroke-linecap="round"/>
</svg>
